# xmcd CD database file
#
# Track frame offsets:
#	225
#	18988
#	31329
#	49293
#	73842
#	95806
#	121880
#	144225
#	159334
#	181837
#	198316
#	229936
#
# Disc length: 3570 seconds
#
# Revision: 0
# Processed by: cddbd v1.5.1PL0 Copyright (c) Steve Scherf et al.
# Submitted via: CDex 1.51
#
DISCID=a10def0c
DTITLE=Kathi McDonald  - Above and Beyond
DYEAR=1999
DGENRE=Blues
TTITLE0=Above and Beyond 
TTITLE1=Don't Give Up On Me 
TTITLE2=Georgia Sunday Morning
TTITLE3=A Soulful Prayer 
TTITLE4=Girl, You Don't Move Me 
TTITLE5=I Put A Spell On You
TTITLE6=Stray Cat 
TTITLE7=Dallas 
TTITLE8=Two Drifters 
TTITLE9=Chicken Today, Feathers Tomorrow 
TTITLE10=Ain't It Wonderful 
TTITLE11=Season Of The Witch
EXTD=YEAR: 1999
EXTT0=
EXTT1=
EXTT2=
EXTT3=
EXTT4=
EXTT5=
EXTT6=
EXTT7=
EXTT8=
EXTT9=
EXTT10=
EXTT11=
PLAYORDER=
